<svg xmlns="http://www.w3.org/2000/svg" viewBox="0 0 512 512">
  <rect width="512" height="512" fill="#0a0c11" />
  <rect x="40" y="40" width="432" height="432" rx="96" fill="#11161f" />
  <g transform="translate(71.68 71.68) scale(0.72)">
    <rect x="64" y="64" width="84" height="84" rx="20" fill="#12232d" />
    <rect x="164" y="64" width="84" height="84" rx="20" fill="#132d38" />
    <rect x="264" y="64" width="84" height="84" rx="20" fill="#132732" />
    <rect x="364" y="64" width="84" height="84" rx="20" fill="#143440" />
    <rect x="64" y="164" width="84" height="84" rx="20" fill="#143c48" />
    <rect x="164" y="164" width="84" height="84" rx="20" fill="#14323e" />
    <rect x="264" y="164" width="84" height="84" rx="20" fill="#164957" />
    <rect x="364" y="164" width="84" height="84" rx="20" fill="#15404d" />
    <rect x="64" y="264" width="84" height="84" rx="20" fill="#175665" />
    <rect x="164" y="264" width="84" height="84" rx="20" fill="#197182" />
    <rect x="264" y="264" width="84" height="84" rx="20" fill="#186272" />
    <rect x="364" y="264" width="84" height="84" rx="20" fill="#1b8497" />
    <rect x="64" y="364" width="84" height="84" rx="20" fill="#1ea9c0" />
    <rect x="164" y="364" width="84" height="84" rx="20" fill="#22d3ee" />
    <rect x="264" y="364" width="84" height="84" rx="20" fill="#fbbf24" />
    <rect x="364" y="364" width="84" height="84" rx="20" fill="#187e8c" />
  <rect x="368" y="368" width="76" height="76" rx="16" fill="#12212b" />
  </g>
</svg>
