<svg xmlns="http://www.w3.org/2000/svg" viewBox="0 0 512 512">
  <rect width="512" height="512" fill="#0a0c11" />
  <g transform="translate(71.68 71.68) scale(0.72)">
    <g fill="#22d3ee">
      <rect x="56" y="56" width="88" height="88" opacity="0.1" />
      <rect x="160" y="56" width="88" height="88" opacity="0.13" />
      <rect x="264" y="56" width="88" height="88" opacity="0.16" />
      <rect x="368" y="56" width="88" height="88" opacity="0.2" />
      <rect x="56" y="160" width="88" height="88" opacity="0.25" />
      <rect x="160" y="160" width="88" height="88" opacity="0.3" />
      <rect x="264" y="160" width="88" height="88" opacity="0.36" />
      <rect x="368" y="160" width="88" height="88" opacity="0.43" />
      <rect x="56" y="264" width="88" height="88" opacity="0.51" />
      <rect x="160" y="264" width="88" height="88" opacity="0.6" />
      <rect x="264" y="264" width="88" height="88" opacity="0.7" />
      <rect x="368" y="264" width="88" height="88" opacity="0.8" />
      <rect x="56" y="368" width="88" height="88" opacity="0.9" />
      <rect x="160" y="368" width="88" height="88" />
    </g>
    <rect x="264" y="368" width="88" height="88" fill="#fbbf24" />
    <rect x="370" y="370" width="84" height="84" fill="none" stroke="#22d3ee" stroke-width="4" opacity="0.25" />
  </g>
</svg>
